<?xml version="1.0" standalone="no"?>
<!DOCTYPE svg PUBLIC "-//W3C//DTD SVG 20010904//EN"
 "http://www.w3.org/TR/2001/REC-SVG-20010904/DTD/svg10.dtd">
<svg version="1.0" xmlns="http://www.w3.org/2000/svg"
 width="400.000000pt" height="400.000000pt" viewBox="0 0 400.000000 400.000000"
 preserveAspectRatio="xMidYMid meet">
<metadata>
Created by potrace 1.11, written by Peter Selinger 2001-2013
</metadata>
<g transform="translate(0.000000,400.000000) scale(0.100000,-0.100000)"
fill="#000000" stroke="none">
<path d="M1779 3984 c-11 -13 -9 -14 17 -8 40 9 54 24 22 24 -14 0 -31 -7 -39
-16z"/>
<path d="M2253 3986 c9 -7 17 -18 17 -25 0 -6 5 -11 11 -11 16 0 0 -41 -31
-77 l-28 -32 -4 43 c-2 26 2 48 10 55 29 28 -9 47 -49 25 -13 -7 -32 -13 -42
-14 -10 0 -30 -9 -45 -19 -15 -10 -39 -22 -55 -25 -23 -5 -29 -2 -37 19 -11
30 -25 34 -17 5 7 -27 -3 -25 -32 6 -25 27 -48 27 -43 1 2 -14 -2 -15 -30 -5
-18 6 -38 15 -45 20 -18 14 -64 -3 -121 -45 -41 -31 -50 -42 -41 -53 16 -19
-4 -41 -35 -41 -35 0 -124 -63 -135 -95 -5 -15 -25 -41 -43 -57 -30 -28 -31
-30 -11 -31 16 0 21 -6 20 -20 -1 -21 -21 -27 -32 -10 -13 22 -31 7 -57 -48
-16 -32 -28 -62 -28 -68 0 -7 -7 -17 -15 -24 -8 -7 -15 -19 -15 -28 0 -8 -11
-39 -25 -68 -19 -39 -23 -61 -18 -81 4 -16 6 -33 5 -40 -2 -6 10 -13 25 -15
26 -3 29 -8 39 -63 5 -33 14 -69 18 -80 4 -11 13 -33 18 -48 12 -30 6 -178
-14 -358 l-11 -106 31 -46 c18 -25 32 -50 32 -56 0 -6 11 -11 26 -11 19 0 28
-8 40 -35 8 -19 18 -35 23 -35 12 0 31 -47 31 -78 0 -15 -6 -47 -14 -72 -11
-37 -23 -205 -31 -435 -4 -120 -13 -125 -25 -15 -4 40 -12 76 -16 80 -5 5 -26
1 -46 -7 l-38 -15 0 -117 c0 -76 -4 -111 -10 -101 -6 10 -8 -1 -7 -35 2 -60
20 -84 48 -67 24 16 25 12 34 -98 4 -59 10 -87 20 -93 9 -5 15 -23 15 -45 0
-20 5 -66 12 -102 6 -36 12 -83 13 -105 2 -53 14 -94 36 -127 11 -14 19 -30
19 -36 0 -5 7 -15 15 -22 11 -9 12 -15 5 -20 -8 -5 -7 -15 1 -34 11 -23 10
-29 -2 -37 -10 -6 -10 -9 -1 -9 6 0 12 -7 12 -15 0 -8 5 -15 12 -15 9 0 9 -3
0 -12 -14 -14 -16 -48 -3 -48 5 0 7 -9 4 -20 -3 -11 0 -20 6 -20 15 0 14 -77
-1 -86 -8 -5 -9 0 -6 14 4 12 2 20 -2 17 -5 -3 -18 7 -29 21 -12 15 -21 22
-21 16 0 -6 6 -17 13 -24 7 -7 23 -30 36 -51 13 -21 28 -43 34 -50 7 -6 31
-37 54 -67 45 -58 57 -70 168 -165 39 -33 72 -63 73 -67 8 -17 35 -6 59 22 13
17 29 28 33 25 5 -3 12 4 15 16 10 31 37 62 160 184 124 123 161 168 195 237
l23 48 101 -2 c124 -1 192 21 250 82 21 22 42 40 47 40 4 0 15 12 23 28 8 15
27 41 42 57 67 73 131 153 149 190 11 22 22 42 25 45 7 6 24 44 68 150 39 95
58 177 36 159 -7 -6 -16 -24 -19 -40 -6 -28 -8 -29 -21 -12 -12 16 -13 15 -14
-13 0 -23 -5 -33 -20 -37 -10 -3 -21 0 -24 7 -2 6 -9 -4 -16 -22 -7 -18 -17
-32 -24 -31 -31 4 -46 -3 -46 -20 0 -11 -4 -23 -10 -26 -5 -3 -10 -15 -10 -26
0 -10 -4 -19 -10 -19 -5 0 -10 -8 -10 -17 0 -22 -39 -87 -47 -79 -3 3 -1 11 4
18 6 7 14 28 18 47 4 19 16 43 26 54 13 15 16 25 9 38 -6 10 -10 33 -10 51 0
41 -29 78 -95 121 -47 30 -50 35 -48 72 1 22 5 55 8 73 9 38 0 40 -57 11 -45
-23 -85 -19 -95 9 -3 9 -17 29 -31 45 -33 35 -96 38 -132 5 -22 -21 -23 -21
-36 -3 -16 22 -19 81 -4 90 6 3 10 14 10 23 -1 10 -9 3 -20 -18 -21 -39 -25
-95 -10 -135 7 -17 7 -24 0 -20 -6 3 -10 0 -10 -8 0 -11 -17 -17 -62 -22 -35
-4 -81 -9 -103 -11 -21 -3 -46 -10 -55 -17 -8 -7 -27 -18 -41 -24 -15 -7 -40
-28 -55 -49 -24 -31 -29 -46 -27 -85 1 -31 -3 -51 -12 -59 -12 -10 -15 -9 -15
6 -1 17 -2 17 -20 -4 -11 -14 -21 -18 -25 -12 -4 6 -1 17 5 25 10 12 9 25 -1
61 -8 26 -19 49 -26 51 -9 3 -7 15 7 41 27 49 25 55 -12 47 l-33 -6 23 18 c17
14 20 21 11 30 -6 6 -18 9 -25 6 -8 -3 -21 0 -29 7 -10 9 -15 9 -15 1 0 -6 -4
-11 -10 -11 -14 0 -13 63 2 78 20 20 -1 26 -36 9 -38 -18 -46 -14 -46 20 0 12
-4 23 -10 23 -5 0 -7 6 -4 14 3 7 -2 16 -10 19 -9 4 -16 2 -16 -3 0 -6 -5 -10
-11 -10 -6 0 -9 6 -6 14 3 8 1 31 -4 51 -8 29 -13 34 -24 25 -10 -9 -15 -7
-20 9 -3 11 -16 21 -28 23 -18 3 -24 15 -38 88 -10 47 -18 107 -18 133 -1 27
-5 46 -10 43 -13 -9 -24 48 -16 84 6 28 25 43 25 20 0 -5 5 -10 10 -10 6 0 10
10 10 21 0 12 11 32 24 44 14 13 31 45 39 72 8 27 26 66 41 87 14 21 26 45 26
52 0 7 9 18 20 24 11 6 20 20 20 30 0 22 35 28 43 8 2 -7 7 1 11 19 8 36 30
58 46 48 6 -4 20 5 31 19 16 20 26 25 45 20 14 -4 24 -2 23 2 -1 5 0 14 1 19
7 22 4 80 -3 86 -4 3 -1 27 8 53 9 25 14 50 11 54 -8 14 39 101 63 118 21 15
24 15 47 -7 13 -12 24 -27 24 -31 0 -16 28 -38 47 -38 19 -1 57 -65 48 -81 -3
-5 1 -6 9 -3 10 4 16 1 16 -9 0 -8 11 -18 25 -21 30 -8 33 -26 4 -26 -15 0
-19 -5 -15 -15 3 -8 1 -15 -5 -15 -6 0 -7 -4 -4 -10 3 -5 18 -10 32 -10 17 0
23 -4 20 -14 -7 -19 29 -33 103 -42 47 -5 64 -4 70 7 5 7 24 14 42 15 18 0 48
4 66 8 25 6 33 4 38 -8 3 -9 17 -16 30 -16 25 0 32 -14 14 -25 -6 -4 -8 -11
-4 -17 4 -6 29 -7 68 -2 73 9 80 9 129 -4 49 -13 77 -5 78 22 1 15 3 13 9 -9
6 -25 8 -27 15 -12 7 16 10 15 34 -9 l26 -26 8 35 c8 32 12 35 49 39 54 5 157
-47 174 -88 13 -32 50 -43 57 -16 10 38 6 -261 -4 -308 -6 -28 -9 -53 -7 -56
5 -4 27 37 53 101 9 22 22 51 29 65 8 14 26 57 41 95 55 142 60 155 68 155 4
0 7 9 7 20 0 13 7 20 19 20 20 0 57 63 41 68 -15 5 -12 28 5 42 9 8 12 22 8
41 -5 27 -3 29 24 29 16 0 38 7 49 15 10 8 31 15 45 15 38 0 57 28 59 85 4 81
1 95 -24 118 -18 17 -23 30 -19 50 3 15 9 30 14 33 12 7 12 44 0 44 -10 0 -31
77 -31 113 0 18 -7 27 -25 31 -16 4 -25 13 -25 26 0 12 -10 24 -24 30 -13 5
-26 15 -29 22 -3 7 -6 3 -6 -9 -1 -12 -4 -29 -8 -38 -6 -16 -4 -16 18 -1 24
15 25 15 43 -18 13 -25 15 -41 9 -67 -12 -43 -25 -41 -40 8 -10 33 -12 35 -12
11 -1 -37 -21 -47 -22 -11 0 30 -17 78 -18 54 -1 -8 -3 -12 -6 -9 -3 3 -1 18
5 33 8 21 8 30 -1 36 -14 9 -3 29 17 29 17 0 17 0 0 40 -13 32 -13 32 -21 9
-4 -13 -8 -27 -9 -31 0 -5 -5 -8 -10 -7 -5 0 -13 -5 -17 -13 -6 -9 -9 -5 -9
13 0 14 -5 30 -12 37 -9 9 -9 12 1 12 10 0 9 7 -5 27 -33 52 -53 68 -66 55
-21 -21 -39 -14 -32 13 5 20 3 24 -10 19 -11 -4 -19 2 -26 20 -5 14 -15 26
-21 26 -6 0 -9 7 -6 15 4 8 2 17 -3 20 -6 4 -10 -1 -10 -9 0 -19 -5 -20 -32
-5 -18 10 -20 9 -15 -5 3 -8 0 -31 -8 -50 -8 -20 -15 -47 -15 -61 0 -15 -7
-28 -17 -32 -10 -4 -22 -11 -26 -17 -8 -10 -6 8 10 72 3 15 13 32 22 38 8 7
16 29 18 49 1 29 -1 35 -9 27 -25 -25 -38 -14 -32 26 6 36 4 40 -25 52 -26 10
-35 10 -53 -2 -48 -31 -85 -74 -98 -112 -9 -28 -15 -35 -21 -25 -9 15 -9 78 0
77 20 -2 29 5 34 23 8 28 -17 35 -41 11 -17 -17 -20 -32 -18 -89 2 -37 8 -81
15 -97 6 -16 8 -37 4 -45 -5 -11 -8 -6 -11 17 -3 31 -4 32 -17 15 -13 -17 -14
-16 -20 9 -4 15 -4 31 -1 37 4 6 1 20 -6 31 -11 17 -11 22 1 30 10 6 12 12 5
22 -6 7 -11 29 -12 48 0 19 2 29 4 23 10 -24 24 -13 18 12 -5 21 -3 25 17 26
17 1 10 5 -21 15 -24 8 -52 12 -61 9 -13 -4 -15 0 -12 19 4 18 0 26 -16 31
-11 3 -25 4 -30 1 -5 -4 -21 -2 -36 4 -23 9 -28 7 -32 -10 -3 -11 -11 -20 -18
-20 -8 0 -11 8 -8 20 8 29 -5 70 -22 70 -8 0 -15 4 -15 9 0 6 -101 10 -247 10
-206 0 -245 -2 -230 -13z m197 -23 c-1 -5 -7 -19 -14 -32 -13 -24 -10 -71 4
-71 5 0 15 7 24 15 8 8 18 15 22 15 4 0 16 8 27 18 19 17 19 16 13 -13 -3 -16
-2 -37 3 -44 12 -19 -4 -51 -24 -51 -8 0 -15 -6 -16 -12 0 -7 -8 4 -18 24
l-17 37 -12 -33 c-16 -43 -15 -57 3 -50 11 5 13 2 9 -10 -4 -10 -13 -15 -21
-12 -8 3 -11 2 -8 -3 7 -12 -24 -91 -35 -91 -4 0 -10 10 -14 22 -5 22 -6 22
-20 3 -9 -11 -16 -16 -16 -12 0 4 10 21 22 38 22 29 30 80 30 184 0 30 2 35 8
20 8 -17 9 -16 9 8 1 15 7 34 14 42 13 16 27 19 27 8z m-124 -30 c0 -10 5 -17
12 -15 15 3 15 2 2 -35 -9 -25 -16 -30 -40 -29 -17 1 -30 2 -30 3 0 1 9 22 20
47 19 46 39 61 36 29z m164 -19 c0 -8 -4 -12 -10 -9 -5 3 -10 10 -10 16 0 5 5
9 10 9 6 0 10 -7 10 -16z m145 -34 c-11 -18 17 -21 36 -4 17 16 19 16 19 1 0
-20 26 -23 34 -4 3 6 4 -8 2 -32 -3 -24 -12 -51 -20 -60 -11 -11 -16 -12 -16
-3 0 7 -4 11 -9 7 -5 -3 -11 3 -14 12 -3 13 -8 8 -20 -19 -9 -20 -25 -39 -35
-42 -10 -4 -26 -21 -35 -39 l-16 -32 0 32 c-1 18 7 48 16 67 13 28 19 33 30
25 10 -9 13 -8 13 4 0 8 5 17 12 19 6 2 8 10 4 16 -10 17 -24 15 -29 -5 -4
-15 -5 -14 -6 3 -1 25 21 74 31 67 5 -2 6 -8 3 -13z m-739 -12 c7 -5 10 -17 7
-27 -2 -9 3 -23 11 -30 9 -8 16 -20 16 -28 0 -21 -44 15 -59 48 -16 37 -41 46
-35 13 2 -13 0 -24 -6 -24 -7 0 -9 -8 -5 -20 5 -15 3 -18 -9 -14 -9 3 -16 10
-16 14 0 5 -13 11 -30 15 -33 7 -39 22 -14 32 8 3 13 12 10 19 -4 11 1 10 19
-2 22 -14 25 -15 25 -1 0 8 5 17 12 19 16 6 60 -3 74 -14z m227 -3 c10 -4 17
-18 17 -33 0 -24 -1 -24 -18 -9 -23 21 -29 21 -35 0 -3 -13 -5 -11 -6 6 0 13
-8 29 -16 35 -13 9 -10 11 12 10 16 -1 36 -5 46 -9z m77 5 c0 -5 -4 -10 -10
-10 -5 0 -10 5 -10 10 0 6 5 10 10 10 6 0 10 -4 10 -10z m156 -27 c-10 -10
-19 5 -10 18 6 11 8 11 12 0 2 -7 1 -15 -2 -18z m-382 -23 c7 0 21 -9 31 -20
10 -11 13 -20 7 -20 -16 0 -15 -19 2 -52 18 -34 5 -37 -17 -5 -16 22 -16 21
-17 -18 -1 -22 -4 -34 -7 -27 -2 6 -8 10 -12 8 -4 -3 -25 11 -46 29 -34 29
-37 34 -19 35 12 0 27 -7 34 -15 22 -26 33 -17 25 21 -5 31 -4 36 9 31 20 -8
21 7 1 23 -8 7 -15 18 -14 24 0 7 2 6 6 -1 2 -7 10 -13 17 -13z m1216 -20 c0
-5 -4 -10 -9 -10 -6 0 -13 5 -16 10 -3 6 1 10 9 10 9 0 16 -4 16 -10z m-455
-57 c-9 -37 -18 -20 -9 19 4 18 9 27 11 20 3 -7 2 -24 -2 -39z m115 27 c0 -5
-7 -10 -15 -10 -8 0 -15 5 -15 10 0 6 7 10 15 10 8 0 15 -4 15 -10z m-187 -15
c-3 -9 -8 -14 -10 -11 -3 3 -2 9 2 15 9 16 15 13 8 -4z m527 5 c0 -5 -5 -10
-11 -10 -5 0 -7 5 -4 10 3 6 8 10 11 10 2 0 4 -4 4 -10z m-1075 -32 c-4 -18
-14 -40 -22 -48 -13 -13 -16 -13 -29 4 -8 11 -14 27 -13 35 0 11 2 12 6 4 7
-20 19 -15 31 12 17 37 35 32 27 -7z m699 6 c10 -27 7 -136 -4 -129 -5 3 -10
15 -10 26 0 13 -4 18 -12 13 -8 -5 -9 -2 -5 9 3 9 -1 23 -10 32 -12 13 -13 21
-5 41 13 27 37 32 46 8z m-1104 -14 c0 -5 -8 -10 -17 -10 -15 0 -16 2 -3 10
19 12 20 12 20 0z m426 -5 c-3 -9 0 -15 10 -15 9 0 14 -7 12 -17 -5 -26 -25
-26 -30 -1 -5 25 0 48 9 48 3 0 3 -7 -1 -15z m779 -5 c3 -5 1 -10 -4 -10 -6 0
-11 5 -11 10 0 6 2 10 4 10 3 0 8 -4 11 -10z m-1315 -75 c0 -11 -7 -10 -34 6
-51 30 -56 55 -6 29 22 -11 40 -27 40 -35z m860 43 c-1 -7 -7 -26 -15 -43
l-13 -30 -1 36 c-1 20 2 39 6 42 10 11 23 8 23 -5z m628 -13 c7 -14 12 -35 12
-46 0 -17 -3 -18 -20 -9 -14 8 -20 21 -20 45 0 41 12 45 28 10z m122 -23 c0
-7 -5 -10 -11 -6 -9 5 -10 -10 -5 -57 5 -47 3 -59 -4 -46 -6 9 -17 17 -25 17
-30 0 -45 58 -22 82 7 7 16 21 20 31 6 15 10 16 27 5 11 -7 20 -19 20 -26z
m-1013 -2 c-10 -27 -27 -41 -27 -22 0 8 29 52 35 52 2 0 -2 -13 -8 -30z m-680
-6 c-3 -3 -12 -4 -19 -1 -8 3 -5 6 6 6 11 1 17 -2 13 -5z m1833 -64 c0 -5 -4
-10 -10 -10 -5 0 -10 5 -10 10 0 6 5 10 10 10 6 0 10 -4 10 -10z m-1785 -30
c3 -5 1 -10 -4 -10 -6 0 -11 5 -11 10 0 6 2 10 4 10 3 0 8 -4 11 -10z m1798
-20 c-9 -38 -23 -52 -39 -39 -8 6 -11 16 -7 23 4 6 6 18 5 26 -2 10 6 15 22
15 22 0 24 -3 19 -25z m-1883 -5 c6 -8 10 -20 8 -26 -2 -6 -12 0 -21 15 -18
27 -8 37 13 11z m1940 -25 c0 -16 -4 -32 -10 -35 -6 -4 -9 10 -7 34 2 44 17
45 17 1z m-167 -36 c-7 -18 -9 -16 -17 21 -6 28 -5 29 8 12 8 -11 12 -25 9
-33z m124 24 c-3 -8 -6 -5 -6 6 -1 11 2 17 5 13 3 -3 4 -12 1 -19z m113 -57
c-19 -37 -30 -22 -12 15 11 23 18 31 20 21 2 -9 -2 -25 -8 -36z m68 13 c-10
-10 -28 6 -28 24 0 15 1 15 17 -1 9 -9 14 -19 11 -23z m-174 14 c10 -9 11 -21
4 -43 -5 -16 -12 -36 -14 -44 -9 -29 -13 -3 -5 27 11 36 5 41 -15 15 -16 -21
-18 -5 -4 31 11 29 15 31 34 14z m-107 -75 c-3 -10 -5 -2 -5 17 0 19 2 27 5
18 2 -10 2 -26 0 -35z m43 -10 c0 -22 -17 -50 -25 -42 -5 6 14 59 22 59 1 0 3
-8 3 -17z m30 -47 c0 -3 -4 -8 -10 -11 -5 -3 -10 -1 -10 4 0 6 5 11 10 11 6 0
10 -2 10 -4z m-94 -114 c-14 -14 -28 -23 -31 -20 -3 3 7 19 22 34 15 16 30 25
32 20 2 -4 -8 -20 -23 -34z m-836 -396 c0 -7 10 -17 23 -21 18 -6 19 -8 5 -12
-9 -2 -31 3 -49 12 -25 13 -29 19 -18 26 21 13 39 11 39 -5z m360 -67 c0 -11
-3 -11 -24 -3 -23 9 -20 23 4 17 11 -3 20 -9 20 -14z m-1060 -922 c0 -32 -11
-40 -26 -19 -9 12 -9 21 -2 29 16 20 28 15 28 -10z m-300 -259 c0 -13 -23 -5
-28 10 -2 7 2 10 12 6 9 -3 16 -11 16 -16z m664 -93 c-4 -8 -8 -15 -10 -15 -2
0 -4 7 -4 15 0 8 4 15 10 15 5 0 7 -7 4 -15z m506 -5 c0 -5 -2 -10 -4 -10 -3
0 -8 5 -11 10 -3 6 -1 10 4 10 6 0 11 -4 11 -10z m-110 -94 c30 -7 62 -14 70
-15 54 -4 161 -28 171 -38 16 -16 -4 -63 -26 -63 -8 0 -15 -4 -15 -10 0 -6 -9
-6 -25 0 -18 7 -25 6 -25 -2 0 -6 -9 -3 -20 7 -12 11 -20 13 -20 6 0 -15 -65
-5 -96 14 -12 8 -36 15 -54 17 -34 3 -56 28 -25 28 21 0 9 20 -13 20 -24 1
-55 27 -47 39 9 15 60 14 125 -3z m-505 -6 c3 -5 1 -10 -4 -10 -6 0 -11 5 -11
10 0 6 2 10 4 10 3 0 8 -4 11 -10z m365 -235 c11 -13 8 -15 -14 -15 -25 0 -33
10 -19 23 10 11 19 8 33 -8z m123 -90 c-3 -9 -8 -14 -10 -11 -3 3 -2 9 2 15 9
16 15 13 8 -4z"/>
<path d="M2407 3854 c-4 -4 -7 -14 -7 -23 0 -11 3 -12 11 -4 6 6 10 16 7 23
-2 6 -7 8 -11 4z"/>
<path d="M2675 3840 c-3 -5 -1 -10 4 -10 6 0 11 5 11 10 0 6 -2 10 -4 10 -3 0
-8 -4 -11 -10z"/>
<path d="M2768 3983 c18 -8 36 -13 39 -9 11 10 -18 26 -47 26 -23 0 -23 -1 8
-17z"/>
<path d="M2816 3961 c-4 -7 -5 -15 -2 -18 9 -9 19 4 14 18 -4 11 -6 11 -12 0z"/>
<path d="M3235 2650 c-3 -5 -1 -10 4 -10 6 0 11 5 11 10 0 6 -2 10 -4 10 -3 0
-8 -4 -11 -10z"/>
<path d="M3290 2565 c0 -8 4 -15 10 -15 5 0 7 7 4 15 -4 8 -8 15 -10 15 -2 0
-4 -7 -4 -15z"/>
<path d="M2170 2494 c-135 -23 -184 -43 -173 -71 5 -13 2 -15 -15 -11 -33 9
-26 0 11 -16 25 -10 48 -11 88 -5 31 5 67 5 84 0 19 -6 23 -10 13 -11 -10 -2
-22 -4 -28 -5 -5 -1 -35 -3 -65 -4 -42 -1 -55 -5 -55 -16 0 -8 -6 -15 -13 -15
-18 0 -67 -24 -67 -32 0 -5 5 -8 10 -8 6 0 10 -4 10 -9 0 -4 -11 -6 -25 -3
-14 2 -25 1 -25 -2 0 -15 37 -45 62 -51 15 -4 40 -21 56 -39 36 -42 132 -96
207 -116 37 -11 60 -22 60 -31 0 -21 22 -31 54 -24 17 4 32 2 36 -5 3 -5 11
-7 17 -4 6 4 42 10 81 14 48 6 73 13 79 24 5 9 15 16 22 16 7 0 24 14 37 31
13 18 32 41 42 52 9 11 17 25 17 30 0 14 32 36 54 37 12 0 16 -5 12 -15 -7
-20 3 -45 19 -45 7 0 16 6 18 13 3 6 6 -38 6 -100 1 -100 3 -112 20 -118 10
-3 23 -5 27 -3 5 1 29 -8 54 -19 101 -47 154 -49 178 -7 5 9 24 17 43 19 18 1
35 7 37 14 2 6 12 11 23 11 10 0 19 7 19 15 0 8 4 15 9 15 15 0 36 73 22 78
-6 2 -11 8 -11 13 0 12 53 -1 63 -15 9 -13 29 13 23 30 -2 6 -1 39 3 72 6 47
4 62 -5 62 -7 0 -15 8 -19 18 -6 21 -51 46 -59 33 -3 -5 3 -19 14 -31 28 -32
16 -38 -20 -11 -35 26 -105 52 -114 43 -9 -9 -246 -8 -246 1 0 16 -16 5 -35
-23 -22 -33 -35 -38 -35 -15 0 8 -7 15 -15 15 -8 0 -15 8 -15 18 0 21 -38 38
-104 46 -27 3 -55 11 -62 17 -7 6 -28 19 -46 28 -71 38 -103 56 -116 68 -7 7
-25 16 -40 19 -15 4 -33 11 -40 17 -13 11 -139 18 -182 11z m-154 -176 c4 -7
3 -8 -4 -4 -7 4 -12 2 -12 -5 0 -7 -3 -10 -6 -6 -6 5 3 27 11 27 2 0 7 -5 11
-12z m274 -42 c0 -3 -4 -8 -10 -11 -5 -3 -10 -1 -10 4 0 6 5 11 10 11 6 0 10
-2 10 -4z m107 -28 c46 -43 20 -68 -71 -68 -24 0 -28 -3 -16 -11 12 -8 11 -9
-5 -5 -11 3 -37 8 -57 12 -51 8 -49 24 2 17 42 -6 90 16 90 40 0 13 19 37 29
37 3 0 15 -10 28 -22z m-197 3 c0 -5 3 -17 7 -27 4 -11 3 -15 -4 -11 -14 9
-24 47 -12 47 5 0 9 -4 9 -9z m600 -51 c0 -5 -7 -10 -15 -10 -8 0 -15 5 -15
10 0 6 7 10 15 10 8 0 15 -4 15 -10z m176 -107 c-10 -10 -19 5 -10 18 6 11 8
11 12 0 2 -7 1 -15 -2 -18z m-86 -8 c0 -8 -4 -15 -10 -15 -5 0 -10 7 -10 15 0
8 5 15 10 15 6 0 10 -7 10 -15z m205 -5 c15 -16 17 -26 9 -48 -9 -25 -15 -27
-67 -30 -60 -3 -72 6 -34 27 12 7 28 25 36 42 15 34 31 37 56 9z m-150 -60 c7
-12 -2 -12 -30 0 -19 8 -19 9 2 9 12 1 25 -3 28 -9z m-95 -40 c0 -5 -4 -10
-10 -10 -5 0 -10 5 -10 10 0 6 5 10 10 10 6 0 10 -4 10 -10z"/>
<path d="M1236 2458 c-3 -13 -1 -27 4 -32 7 -7 10 1 10 22 0 37 -5 41 -14 10z"/>
<path d="M1309 2468 c-9 -7 -26 -39 -39 -71 -12 -32 -24 -56 -26 -54 -2 2 -4
17 -6 35 -1 17 -5 28 -9 24 -8 -8 -17 -132 -9 -132 12 0 112 188 108 202 -2 5
-10 3 -19 -4z"/>
<path d="M1365 2350 c-7 -12 2 -30 16 -30 12 0 12 27 0 35 -5 3 -12 1 -16 -5z"/>
<path d="M3265 2350 c-3 -5 -1 -10 4 -10 6 0 11 5 11 10 0 6 -2 10 -4 10 -3 0
-8 -4 -11 -10z"/>
<path d="M1426 2283 c-6 -14 -9 -15 -16 -4 -7 12 -13 12 -38 2 -30 -12 -73
-51 -57 -51 4 0 3 -6 -3 -12 -12 -15 -23 -78 -14 -78 4 0 17 16 30 35 12 19
27 35 32 35 14 0 12 -12 -5 -34 -14 -18 -12 -36 3 -36 4 0 13 13 20 28 13 30
34 54 66 76 13 9 16 19 12 34 -9 26 -21 28 -30 5z"/>
<path d="M211 2257 c-7 -10 -11 -17 -7 -17 4 0 -1 -14 -9 -31 -25 -47 -14 -59
50 -59 30 0 55 5 55 10 0 6 -7 10 -15 10 -17 0 -47 59 -38 74 4 5 1 6 -5 2 -6
-3 -12 1 -14 10 -3 16 -4 16 -17 1z"/>
<path d="M1380 2080 c0 -5 5 -10 11 -10 5 0 7 5 4 10 -3 6 -8 10 -11 10 -2 0
-4 -4 -4 -10z"/>
<path d="M843 2045 c-31 -8 -43 -28 -25 -38 4 -3 27 -7 52 -10 25 -3 37 -4 28
-1 -9 3 -18 17 -20 32 -3 25 -5 26 -35 17z"/>
<path d="M750 2039 c-19 -5 -65 -9 -102 -10 -50 0 -68 -4 -68 -14 0 -11 21
-13 97 -13 95 1 123 10 123 37 0 12 -2 12 -50 0z"/>
<path d="M1240 1890 c0 -5 5 -10 11 -10 5 0 7 5 4 10 -3 6 -8 10 -11 10 -2 0
-4 -4 -4 -10z"/>
<path d="M1310 1773 c0 -22 2 -25 10 -13 13 20 13 40 0 40 -5 0 -10 -12 -10
-27z"/>
<path d="M3992 1640 c0 -14 2 -19 5 -12 2 6 2 18 0 25 -3 6 -5 1 -5 -13z"/>
<path d="M1280 1603 c0 -44 57 -213 71 -213 5 0 8 11 7 25 -1 14 -6 25 -10 25
-4 0 -8 9 -8 20 0 11 -9 37 -20 57 -11 21 -20 50 -20 65 0 15 -4 30 -10 33 -5
3 -10 -2 -10 -12z"/>
<path d="M3661 1563 c-43 -3 -72 -10 -87 -22 -23 -18 -23 -19 -5 -35 16 -15
29 -16 101 -7 82 11 110 22 110 46 0 11 -36 28 -50 23 -3 -1 -34 -3 -69 -5z"/>
<path d="M3987 1443 c-3 -16 -5 -80 -6 -143 -1 -63 -7 -131 -13 -152 -12 -41
-6 -68 17 -68 13 0 15 27 15 195 0 107 -2 195 -4 195 -3 0 -7 -12 -9 -27z"/>
<path d="M3060 1440 c0 -5 5 -10 11 -10 5 0 7 5 4 10 -3 6 -8 10 -11 10 -2 0
-4 -4 -4 -10z"/>
<path d="M1510 691 c0 -6 4 -13 10 -16 6 -3 7 1 4 9 -7 18 -14 21 -14 7z"/>
</g>
</svg>
